<svg xmlns="http://www.w3.org/2000/svg" viewBox="0 0 512 512" width="512" height="512">
  <defs>
    <style>
      .light-mode { fill: #2563eb; }
      .dark-mode { fill: #60a5fa; }
      .accent-light { fill: #1d4ed8; }
      .accent-dark { fill: #3b82f6; }
      .bg-light { fill: #ffffff; }
      .bg-dark { fill: #1f2937; }
      
      @media (prefers-color-scheme: dark) {
        .light-mode { fill: #60a5fa; }
        .dark-mode { fill: #60a5fa; }
        .accent-light { fill: #3b82f6; }
        .accent-dark { fill: #3b82f6; }
        .bg-light { fill: #1f2937; }
        .bg-dark { fill: #1f2937; }
      }
    </style>
    <linearGradient id="globeGradient" x1="0%" y1="0%" x2="100%" y2="100%">
      <stop offset="0%" class="light-mode"/>
      <stop offset="100%" class="accent-light"/>
    </linearGradient>
    <linearGradient id="arrowGradient" x1="0%" y1="0%" x2="100%" y2="100%">
      <stop offset="0%" class="accent-light"/>
      <stop offset="100%" class="dark-mode"/>
    </linearGradient>
  </defs>
  
  <!-- Background circle -->
  <circle cx="256" cy="256" r="240" class="bg-light" stroke="url(#globeGradient)" stroke-width="8"/>
  
  <!-- Globe -->
  <circle cx="256" cy="256" r="120" fill="url(#globeGradient)" opacity="0.9"/>
  
  <!-- Globe grid lines -->
  <g stroke="white" stroke-width="2" fill="none" opacity="0.7">
    <!-- Horizontal lines -->
    <ellipse cx="256" cy="256" rx="120" ry="40"/>
    <ellipse cx="256" cy="256" rx="120" ry="80"/>
    <line x1="136" y1="256" x2="376" y2="256"/>
    
    <!-- Vertical lines -->
    <ellipse cx="256" cy="256" rx="40" ry="120"/>
    <ellipse cx="256" cy="256" rx="80" ry="120"/>
    <line x1="256" y1="136" x2="256" y2="376"/>
  </g>
  
  <!-- Conversion arrows -->
  <g fill="url(#arrowGradient)">
    <!-- Top-right arrow -->
    <path d="M 350 150 L 380 120 L 410 150 L 395 135 L 395 165 L 365 165 Z" transform="rotate(45 380 142.5)"/>
    
    <!-- Bottom-left arrow -->
    <path d="M 102 362 L 132 392 L 102 422 L 117 407 L 117 377 L 147 377 Z" transform="rotate(225 124.5 392)"/>
    
    <!-- Top-left arrow -->
    <path d="M 102 150 L 132 120 L 162 150 L 147 135 L 147 165 L 117 165 Z" transform="rotate(-45 132 142.5)"/>
    
    <!-- Bottom-right arrow -->
    <path d="M 350 362 L 380 392 L 350 422 L 365 407 L 365 377 L 395 377 Z" transform="rotate(135 372.5 392)"/>
  </g>
  
  <!-- Center conversion symbol -->
  <g fill="url(#arrowGradient)">
    <circle cx="256" cy="256" r="25" fill="white" stroke="url(#globeGradient)" stroke-width="3"/>
    <path d="M 246 256 L 256 246 L 266 256 L 256 266 Z" fill="url(#globeGradient)"/>
  </g>
  
  <!-- Data points -->
  <g fill="url(#arrowGradient)" opacity="0.8">
    <circle cx="200" cy="200" r="4"/>
    <circle cx="312" cy="200" r="4"/>
    <circle cx="200" cy="312" r="4"/>
    <circle cx="312" cy="312" r="4"/>
    <circle cx="180" cy="256" r="3"/>
    <circle cx="332" cy="256" r="3"/>
    <circle cx="256" cy="180" r="3"/>
    <circle cx="256" cy="332" r="3"/>
  </g>
</svg>