<svg xmlns="http://www.w3.org/2000/svg" width="512" height="512" viewBox="0 0 512 512">
    <defs>
      <linearGradient id="grad" x1="0%" y1="0%" x2="100%" y2="100%">
        <stop offset="0%" style="stop-color:#2563eb;stop-opacity:1" />
        <stop offset="100%" style="stop-color:#1d4ed8;stop-opacity:1" />
      </linearGradient>
    </defs>
    <rect width="512" height="512" rx="80" fill="url(#grad)"/>
    <circle cx="256" cy="256" r="120" fill="white" opacity="0.9"/>
    <g stroke="#2563eb" stroke-width="3" fill="none">
      <ellipse cx="256" cy="256" rx="120" ry="40"/>
      <ellipse cx="256" cy="256" rx="40" ry="120"/>
      <line x1="136" y1="256" x2="376" y2="256"/>
      <line x1="256" y1="136" x2="256" y2="376"/>
    </g>
    <circle cx="256" cy="256" r="20" fill="#2563eb"/>
    <path d="M 350 150 L 380 120 L 410 150 L 395 135 L 395 165 L 365 165 Z" fill="#1d4ed8" transform="rotate(45 380 142.5)"/>
    <path d="M 102 362 L 132 392 L 102 422 L 117 407 L 117 377 L 147 377 Z" fill="#1d4ed8" transform="rotate(225 124.5 392)"/>
  </svg>